<svg
    aria-hidden="true"
    focusable="false"
    role="img"
    xmlns="http://www.w3.org/2000/svg"
    xmlns:xlink="http://www.w3.org/1999/xlink"
    viewBox="0 0 18 18"
    width="18"
    height="18"
    style="fill: currentColor"
>
    <path
        d="M1,15l16,0c0.55,0 1,-0.45 1,-1c0,-0.55 -0.45,-1 -1,-1l-16,-0c-0.55,-0 -1,0.45 -1,1c0,0.55 0.45,1 1,1Zm-0,-5l16,-0c0.55,-0 1,-0.45 1,-1c0,-0.55 -0.45,-1 -1,-1l-16,0c-0.55,0 -1,0.45 -1,1c0,0.55 0.45,1 1,1Zm-1,-6c0,0.55 0.45,1 1,1l16,0c0.55,0 1,-0.45 1,-1c0,-0.55 -0.45,-1 -1,-1l-16,0c-0.55,0 -1,0.45 -1,1Z"
    ></path>
</svg>
